<svg xmlns="http://www.w3.org/2000/svg" viewBox="0 0 100 100" width="100%" height="100%" fill="none" stroke="#2E3540" stroke-width="2" stroke-linecap="round" stroke-linejoin="round">
  <!-- Blocky, Lobed Silhouette -->
  <path d="M25 30 C15 30, 10 45, 10 60 C10 80, 20 90, 35 90 C45 90, 50 85, 50 85 C50 85, 55 90, 65 90 C80 90, 90 80, 90 60 C90 45, 85 30, 75 30" />
  <path d="M25 30 C35 25, 45 28, 50 28 C55 28, 65 25, 75 30" />
  <!-- Vertical Lobe Lines -->
  <path d="M35 30 Q30 55, 35 90" />
  <path d="M65 30 Q70 55, 65 90" />
  <path d="M50 28 V85" />
  <!-- Thick, Curved Stem -->
  <path d="M50 28 C55 15, 65 20, 60 5" />
</svg>
