<svg xmlns="http://www.w3.org/2000/svg" viewBox="0 0 100 100" width="100%" height="100%" fill="none" stroke="#2E3540" stroke-width="2" stroke-linecap="round" stroke-linejoin="round">
  <!-- Rounded Tapering Cluster -->
  <path d="M50 85 C30 85, 15 70, 15 45 C15 30, 30 20, 50 20 C70 20, 85 30, 85 45 C85 70, 70 85, 50 85 Z" />
  <!-- Densely Packed Drupelet Nodes -->
  <circle cx="35" cy="35" r="10" />
  <circle cx="50" cy="30" r="10" />
  <circle cx="65" cy="35" r="10" />
  <circle cx="25" cy="50" r="10" />
  <circle cx="42" cy="50" r="10" />
  <circle cx="58" cy="50" r="10" />
  <circle cx="75" cy="50" r="10" />
  <circle cx="35" cy="70" r="10" />
  <circle cx="50" cy="75" r="10" />
  <circle cx="65" cy="70" r="10" />
  <!-- Stem -->
  <path d="M50 20 V5" />
</svg>
