<svg xmlns="http://www.w3.org/2000/svg" viewBox="0 0 100 100" width="100%" height="100%" fill="none" stroke="#2E3540" stroke-width="2" stroke-linecap="round" stroke-linejoin="round">
  <!-- Central Stem -->
  <path d="M50 85 V55" />
  <!-- Densely Clustered Florets -->
  <path d="M50 55 C35 55, 25 45, 30 35 C35 25, 45 25, 50 35 C55 25, 65 25, 70 35 C75 45, 65 55, 50 55 Z" />
  <path d="M50 35 Q40 25, 50 15 Q60 25, 50 35" />
  <!-- Lower Broad Leaves -->
  <path d="M48 80 C30 75, 20 60, 35 50 C45 60, 48 70, 48 80" />
  <path d="M52 80 C70 75, 80 60, 65 50 C55 60, 52 70, 52 80" />
  <!-- Texture Dots in Florets -->
  <circle cx="40" cy="40" r="1.2" stroke="none" fill="#2E3540" />
  <circle cx="60" cy="40" r="1.2" stroke="none" fill="#2E3540" />
  <circle cx="50" cy="25" r="1.2" stroke="none" fill="#2E3540" />
</svg>
