<svg xmlns="http://www.w3.org/2000/svg" viewBox="0 0 100 100" width="100%" height="100%" fill="none" stroke="#2E3540" stroke-width="2" stroke-linecap="round" stroke-linejoin="round">
  <!-- Tight cloud-like head of florets -->
  <path d="M50 75 C35 75, 25 65, 25 50 C25 35, 35 25, 50 25 C65 25, 75 35, 75 50 C75 65, 65 75, 50 75" />
  <!-- Rhythmic floret divisions (Nested scalloped lines) -->
  <path d="M40 35 Q50 30, 60 35" />
  <path d="M35 50 Q50 45, 65 50" />
  <path d="M40 65 Q50 60, 60 65" />
  <!-- Elegant wrapping leaves -->
  <path d="M25 75 C15 65, 10 45, 25 25 Q20 45, 25 75" />
  <path d="M75 75 C85 65, 90 45, 75 25 Q80 45, 75 75" />
  <path d="M30 85 Q50 95, 70 85 C60 80, 40 80, 30 85" />
</svg>
