<svg xmlns="http://www.w3.org/2000/svg" viewBox="0 0 100 100" width="100%" height="100%" fill="none" stroke="#2E3540" stroke-width="2" stroke-linecap="round" stroke-linejoin="round">
  <!-- Vertical Hollow Tube Leaves -->
  <path d="M40 95 L38 25" />
  <path d="M45 95 L46 35" />
  <path d="M55 95 L54 30" />
  <path d="M60 95 L62 40" />
  <!-- Pom-pom Exploded Flowers at tips -->
  <path d="M38 25 L33 15 M38 25 L38 10 M38 25 L43 15" stroke-width="1" />
  <circle cx="33" cy="15" r="1.2" fill="#2E3540" stroke="none" />
  <circle cx="38" cy="10" r="1.2" fill="#2E3540" stroke="none" />
  <circle cx="43" cy="15" r="1.2" fill="#2E3540" stroke="none" />
  
  <path d="M54 30 L49 20 M54 30 L54 15 M54 30 L59 20" stroke-width="1" />
  <circle cx="49" cy="20" r="1.2" fill="#2E3540" stroke="none" />
  <circle cx="54" cy="15" r="1.2" fill="#2E3540" stroke="none" />
  <circle cx="59" cy="20" r="1.2" fill="#2E3540" stroke="none" />
</svg>
