<svg xmlns="http://www.w3.org/2000/svg" viewBox="0 0 100 100" width="100%" height="100%" fill="none" stroke="#2E3540" stroke-width="2" stroke-linecap="round" stroke-linejoin="round">
  <!-- Delicate Branching Stems -->
  <path d="M50 95 C50 70, 45 60, 30 40" />
  <path d="M50 75 Q55 60, 70 45" />
  <path d="M50 50 V15" />
  <!-- Fan-Shaped/Deeply Lobed Leaves -->
  <path d="M30 40 C20 40, 10 30, 15 20 C20 10, 35 15, 30 40 Z" />
  <path d="M70 45 C80 45, 90 35, 85 25 C80 15, 65 20, 70 45 Z" />
  <path d="M50 15 C40 15, 30 5, 50 0 C70 5, 60 15, 50 15 Z" />
  <!-- Small vein lines -->
  <path d="M22 28 Q25 25, 28 22" stroke-width="1" />
  <path d="M78 33 Q75 30, 72 27" stroke-width="1" />
</svg>
