<svg xmlns="http://www.w3.org/2000/svg" viewBox="0 0 100 100" width="100%" height="100%" fill="none" stroke="#2E3540" stroke-width="2" stroke-linecap="round" stroke-linejoin="round">
  <!-- Slender, slightly curved body -->
  <path d="M30 30 C35 55, 55 65, 75 75 C85 80, 75 90, 65 85 C45 75, 25 65, 20 40 C15 15, 25 25, 30 30 Z" />
  <!-- Pebbled Skin Texture -->
  <path d="M35 45 L36 46" stroke-width="1.5" />
  <path d="M45 55 L46 56" stroke-width="1.5" />
  <path d="M55 65 L56 66" stroke-width="1.5" />
  <path d="M30 60 L31 61" stroke-width="1.5" />
  <path d="M40 70 L41 71" stroke-width="1.5" />
  <path d="M25 45 L26 46" stroke-width="1.5" />
  <!-- Vine Attachment -->
  <path d="M30 30 Q25 25, 20 30" />
  <!-- Flower Remnant at tip -->
  <path d="M75 75 L80 72 M75 75 L78 78" />
</svg>
