<svg xmlns="http://www.w3.org/2000/svg" viewBox="0 0 100 100" width="100%" height="100%" fill="none" stroke="#2E3540" stroke-width="2" stroke-linecap="round" stroke-linejoin="round">
  <path d="M50 95 C 50 70, 48 50, 50 30" />
  <!-- Left lower leaf -->
  <path d="M50 80 C 30 75, 15 55, 35 45 C 45 50, 48 70, 50 80" />
  <!-- Right middle leaf -->
  <path d="M50 65 C 75 60, 90 35, 65 25 C 55 35, 52 55, 50 65" />
  <!-- Top sprout -->
  <path d="M50 30 C 55 15, 45 5, 50 5 C 55 5, 58 15, 50 30" />
  <!-- Abstract dots -->
  <circle cx="30" cy="35" r="1.5" fill="#2E3540" stroke="none" />
  <circle cx="70" cy="50" r="1.5" fill="#2E3540" stroke="none" />
  <circle cx="55" cy="15" r="1.5" fill="#2E3540" stroke="none" />
</svg>
