<svg xmlns="http://www.w3.org/2000/svg" viewBox="0 0 100 100" width="100%" height="100%" fill="none" stroke="#2E3540" stroke-width="2" stroke-linecap="round" stroke-linejoin="round">
  <!-- Central stalk -->
  <path d="M50 95 V25" />
  <!-- Feathery Thread-like Foliage -->
  <path d="M50 80 Q30 75, 20 60" />
  <path d="M50 80 Q70 75, 80 60" />
  <path d="M50 55 Q35 50, 25 35" />
  <path d="M50 55 Q65 50, 75 35" />
  <!-- Delicate individual hairs/threads -->
  <path d="M25 70 L20 60 L15 70" stroke-width="1" />
  <path d="M75 70 L80 60 L85 70" stroke-width="1" />
  <path d="M30 45 L25 35 L20 45" stroke-width="1" />
  <path d="M70 45 L75 35 L80 45" stroke-width="1" />
  <!-- Umbel Flower Clusters -->
  <path d="M50 25 L40 5 M50 25 L50 2 M50 25 L60 5" stroke-width="1" />
  <circle cx="40" cy="5" r="1" fill="#2E3540" stroke="none" />
  <circle cx="50" cy="2" r="1" fill="#2E3540" stroke="none" />
  <circle cx="60" cy="5" r="1" fill="#2E3540" stroke="none" />
</svg>
