<svg xmlns="http://www.w3.org/2000/svg" viewBox="0 0 100 100" width="100%" height="100%" fill="none" stroke="#2E3540" stroke-width="2" stroke-linecap="round" stroke-linejoin="round">
  <!-- Smooth teardrop-shaped body -->
  <path d="M50 85 C25 85, 15 70, 15 50 C15 30, 30 25, 50 25 C70 25, 85 30, 85 50 C85 70, 75 85, 50 85 Z" />
  <!-- Heavy Textured Cap (Calyx) -->
  <path d="M50 25 C40 25, 30 20, 35 15 C45 20, 55 20, 65 15 C70 20, 60 25, 50 25" />
  <path d="M50 15 L50 2" />
  <!-- Highlights/Texture to imply gloss -->
  <path d="M30 40 Q35 35, 45 35" stroke-width="1" />
  <path d="M25 55 Q30 50, 40 50" stroke-width="1" />
</svg>
