<svg xmlns="http://www.w3.org/2000/svg" viewBox="0 0 100 100" width="100%" height="100%" fill="none" stroke="#2E3540" stroke-width="2" stroke-linecap="round" stroke-linejoin="round">
  <!-- Long Cylindrical Base -->
  <path d="M45 95 L45 40 Q50 35, 55 40 L55 95" />
  <path d="M45 80 Q50 78, 55 80" stroke-width="1" />
  <path d="M45 65 Q50 63, 55 65" stroke-width="1" />
  <!-- Broad Fan-Like Green Leaves -->
  <path d="M45 40 C35 30, 20 25, 25 5" />
  <path d="M45 40 C40 35, 45 30, 48 5" />
  <path d="M55 40 C60 35, 55 30, 52 5" />
  <path d="M55 40 C65 30, 80 25, 75 5" />
  <!-- Fibrous Roots at base -->
  <path d="M44 95 L40 99" stroke-width="1" />
  <path d="M47 95 L47 99" stroke-width="1" />
  <path d="M50 95 L50 99" stroke-width="1" />
  <path d="M53 95 L53 99" stroke-width="1" />
  <path d="M56 95 L60 99" stroke-width="1" />
</svg>
