<svg xmlns="http://www.w3.org/2000/svg" viewBox="0 0 100 100" width="100%" height="100%" fill="none" stroke="#2E3540" stroke-width="2" stroke-linecap="round" stroke-linejoin="round">
  <!-- Robust Stems -->
  <path d="M50 95 C50 75, 40 65, 30 50" />
  <path d="M50 85 Q60 70, 70 55" />
  <path d="M50 60 V25" />
  <!-- Triple-Lobed Flat Leaves -->
  <path d="M30 50 C20 50, 15 40, 20 30 C25 25, 35 30, 30 50 Z" />
  <circle cx="21" cy="38" r="1.5" stroke="none" fill="#2E3540" opacity="0" /> <!-- Anchor point logic -->
  <path d="M70 55 C80 55, 85 45, 80 35 C75 30, 65 35, 70 55 Z" />
  <path d="M50 25 C40 25, 35 15, 50 10 C65 15, 60 25, 50 25 Z" />
  <!-- Internal vein structures -->
  <path d="M22 40 Q25 40, 28 45" stroke-width="1" />
  <path d="M78 45 Q75 45, 72 50" stroke-width="1" />
  <path d="M45 20 Q50 18, 55 20" stroke-width="1" />
</svg>
