<svg xmlns="http://www.w3.org/2000/svg" viewBox="0 0 100 100" width="100%" height="100%" fill="none" stroke="#2E3540" stroke-width="2" stroke-linecap="round" stroke-linejoin="round">
  <!-- Spiral Tendril -->
  <path d="M50 85 C45 65, 55 55, 50 40 C45 25, 55 15, 65 10 C75 5, 80 15, 75 25 C70 35, 65 30, 60 25" />
  <!-- Plump Pods (Curved lines) -->
  <path d="M40 80 Q30 70, 35 60 Q40 50, 50 55 Q45 65, 40 80" />
  <path d="M60 60 Q70 50, 65 40 Q60 30, 50 35 Q55 45, 60 60" />
  <!-- Pea Dots in the Pods -->
  <circle cx="36" cy="73" r="1.5" stroke="none" fill="#2E3540" />
  <circle cx="38" cy="65" r="1.5" stroke="none" fill="#2E3540" />
  <circle cx="43" cy="58" r="1.5" stroke="none" fill="#2E3540" />
</svg>
