<svg viewBox="0 0 100 100" xmlns="http://www.w3.org/2000/svg">
  <!-- Pumpkin outer body -->
  <path d="M 50 25 C 80 25 95 40 95 65 C 95 85 75 95 50 95 C 25 95 5 85 5 65 C 5 40 20 25 50 25 Z" fill="none" stroke="currentColor" stroke-width="2" />
  <!-- Pumpkin ribs -->
  <path d="M 50 25 C 65 25 70 45 70 65 C 70 85 65 95 50 95" fill="none" stroke="currentColor" stroke-width="2" />
  <path d="M 50 25 C 35 25 30 45 30 65 C 30 85 35 95 50 95" fill="none" stroke="currentColor" stroke-width="2" />
  <!-- Stem -->
  <path d="M 45 25 Q 40 10 50 5 Q 55 5 55 25" fill="none" stroke="currentColor" stroke-width="2" />
</svg>
