<svg xmlns="http://www.w3.org/2000/svg" viewBox="0 0 100 100" width="100%" height="100%" fill="none" stroke="#2E3540" stroke-width="2" stroke-linecap="round" stroke-linejoin="round">
  <!-- Woody vertical stems -->
  <path d="M50 95 V25" />
  <path d="M50 75 L30 45" />
  <path d="M50 65 L70 35" />
  <!-- Needle-like foliage -->
  <path d="M50 85 L40 85 M50 80 L60 80 M50 75 L40 75 M50 70 L60 70" stroke-width="1.5" />
  <path d="M30 45 L20 45 M30 40 L35 35 M30 50 L25 55" stroke-width="1.5" />
  <path d="M70 35 L80 35 M70 30 L65 25 M70 40 L75 45" stroke-width="1.5" />
  <path d="M50 25 L45 20 M50 15 L55 10 M50 5 L50 2" stroke-width="1.5" />
</svg>
