<svg xmlns="http://www.w3.org/2000/svg" viewBox="0 0 100 100" width="100%" height="100%" fill="none" stroke="#2E3540" stroke-width="2" stroke-linecap="round" stroke-linejoin="round">
  <!-- Central stalk -->
  <path d="M50 95 V70" />
  <!-- Large, oval textured leaves -->
  <path d="M50 75 C30 75, 10 55, 30 25 C45 10, 50 25, 50 25" />
  <path d="M50 75 C70 75, 90 55, 70 25 C55 10, 50 25, 50 25" />
  <!-- "Fuzzy" texture lines (Small rhythmic marks near edges) -->
  <path d="M25 45 L22 42" stroke-width="1" />
  <path d="M20 55 L17 52" stroke-width="1" />
  <path d="M75 45 L78 42" stroke-width="1" />
  <path d="M80 55 L83 52" stroke-width="1" />
  <!-- Prominent veins -->
  <path d="M30 45 Q40 40, 50 25" />
  <path d="M70 45 Q60 40, 50 25" />
</svg>
