<svg xmlns="http://www.w3.org/2000/svg" viewBox="0 0 100 100" width="100%" height="100%" fill="none" stroke="#2E3540" stroke-width="2" stroke-linecap="round" stroke-linejoin="round">
  <!-- The Bulb -->
  <path d="M50 85 C35 85, 25 70, 30 50 C35 30, 45 20, 50 20 C55 20, 65 30, 70 50 C75 70, 65 85, 50 85 Z" />
  <!-- Skin Texture -->
  <path d="M42 30 C35 45, 35 65, 42 80" />
  <path d="M58 30 C65 45, 65 65, 58 80" />
  <!-- Root Tufts -->
  <path d="M45 85 L44 92" />
  <path d="M50 85 L50 95" />
  <path d="M55 85 L56 92" />
  <!-- Dried Neck -->
  <path d="M50 20 Q50 10, 55 5" />
</svg>
