<svg xmlns="http://www.w3.org/2000/svg" viewBox="0 0 100 100" width="100%" height="100%" fill="none" stroke="#2E3540" stroke-width="2" stroke-linecap="round" stroke-linejoin="round">
  <!-- Central Sprouting Point -->
  <path d="M50 95 V85" />
  <!-- Broad Spade-Shaped Leaves -->
  <path d="M50 85 C30 75, 10 55, 30 25 C45 10, 50 25, 50 25" />
  <path d="M50 85 C70 75, 90 55, 70 25 C55 10, 50 25, 50 25" />
  <!-- Side Leaves -->
  <path d="M50 85 C25 80, 5 65, 10 45 C15 30, 30 45, 50 85" />
  <path d="M50 85 C75 80, 95 65, 90 45 C85 30, 70 45, 50 85" />
  <!-- Leaf Vein Detail -->
  <path d="M35 55 Q45 50, 50 25" />
  <path d="M65 55 Q55 50, 50 25" />
</svg>
