<svg xmlns="http://www.w3.org/2000/svg" viewBox="0 0 100 100" width="100%" height="100%" fill="none" stroke="#2E3540" stroke-width="2" stroke-linecap="round" stroke-linejoin="round">
  <!-- Heart-Shaped Fruit (Shifted down slightly for breathing room) -->
  <path d="M50 88 C30 83, 15 68, 15 48 C15 33, 30 23, 50 23 C70 23, 85 33, 85 48 C85 68, 70 83, 50 88" />
  <!-- Leafy Green Crown (Calyx) - Adjusted to stay within viewBox -->
  <path d="M50 23 C40 18, 32 15, 35 5 M50 23 C45 13, 40 10, 50 10 M50 23 C55 13, 60 10, 50 10 M50 23 C60 18, 68 15, 65 5" />
  <path d="M50 23 L50 15" />
  <!-- Small Seed Detail -->
  <path d="M35 43 L35.5 44" stroke-width="1.5" />
  <path d="M50 53 L50.5 54" stroke-width="1.5" />
  <path d="M65 43 L65.5 44" stroke-width="1.5" />
  <path d="M40 68 L40.5 69" stroke-width="1.5" />
  <path d="M60 68 L60.5 69" stroke-width="1.5" />
  <path d="M50 73 L50.5 74" stroke-width="1.5" />
</svg>
