<svg xmlns="http://www.w3.org/2000/svg" viewBox="0 0 100 100" width="100%" height="100%" fill="none" stroke="#2E3540" stroke-width="2" stroke-linecap="round" stroke-linejoin="round">
  <!-- Thick Midrib -->
  <path d="M45 95 L48 20 Q50 10, 52 20 L55 95" />
  <!-- Broad Leaf Blade -->
  <path d="M48 20 C20 20, 15 50, 20 80 Q30 85, 45 80" />
  <path d="M52 20 C80 20, 85 50, 80 80 Q70 85, 55 80" />
  <!-- Crinkled Texture lines -->
  <path d="M30 40 Q40 45, 48 40" />
  <path d="M70 40 Q60 45, 52 40" />
  <path d="M25 60 Q40 65, 48 60" />
  <path d="M75 60 Q60 65, 52 60" />
</svg>
